<svg width="257" height="67" viewBox="0 0 257 67" fill="none" xmlns="http://www.w3.org/2000/svg">
<path d="M13.16 39.096L8.216 51H5.768L20.216 16.44H21.56L36.056 51H33.464L28.52 39.096H13.16ZM20.744 20.28C20.712 20.312 20.648 20.504 20.552 20.856C20.104 22.232 19.672 23.4 19.256 24.36L13.976 37.128H27.704L22.424 24.408C21.304 21.976 20.744 20.6 20.744 20.28ZM42.5881 51V19.656H43.6441L64.0921 43.176C64.8281 44.008 65.5001 44.84 66.1081 45.672C66.7481 46.472 67.0841 46.888 67.1161 46.92C67.0521 46.152 67.0201 44.648 67.0201 42.408V19.848H69.2281V51.192H68.1721L47.3401 27.288L44.7001 24.072C44.7641 24.712 44.7961 26.216 44.7961 28.584V51H42.5881ZM82.2804 40.2L77.8164 51H75.5604L88.6164 19.656H89.9124L103.064 51H100.616L96.1044 40.2H82.2804ZM89.1444 23.208C88.6644 24.648 88.2324 25.848 87.8484 26.808L83.0484 38.328H95.3364L90.5844 26.856C89.8484 25.064 89.3684 23.848 89.1444 23.208ZM109.385 51V19.848H111.593V48.984H125.897V51H109.385ZM144.302 51.48C139.854 51.48 136.126 49.928 133.118 46.824C130.11 43.72 128.606 39.928 128.606 35.448C128.606 30.936 130.11 27.128 133.118 24.024C136.126 20.92 139.854 19.368 144.302 19.368C148.75 19.368 152.478 20.92 155.486 24.024C158.494 27.128 159.998 30.936 159.998 35.448C159.998 39.928 158.494 43.72 155.486 46.824C152.478 49.928 148.75 51.48 144.302 51.48ZM144.302 21.336C140.462 21.336 137.262 22.696 134.702 25.416C132.174 28.136 130.91 31.48 130.91 35.448C130.91 39.384 132.174 42.712 134.702 45.432C137.262 48.12 140.462 49.464 144.302 49.464C148.174 49.464 151.374 48.12 153.902 45.432C156.43 42.712 157.694 39.384 157.694 35.448C157.694 31.48 156.43 28.136 153.902 25.416C151.374 22.696 148.174 21.336 144.302 21.336ZM182.627 21.336C179.075 21.336 176.083 22.696 173.651 25.416C171.251 28.104 170.051 31.416 170.051 35.352C170.051 39.288 171.411 42.632 174.131 45.384C176.851 48.104 180.051 49.464 183.731 49.464C187.443 49.464 190.323 49.032 192.371 48.168V35.352H194.579V49.176C192.083 50.712 188.547 51.48 183.971 51.48C179.395 51.48 175.539 49.928 172.403 46.824C169.267 43.72 167.699 39.912 167.699 35.4C167.699 30.856 169.107 27.048 171.923 23.976C174.771 20.904 178.435 19.368 182.915 19.368C186.531 19.368 190.067 19.928 193.523 21.048L192.947 22.872C189.619 21.848 186.179 21.336 182.627 21.336ZM227.233 47.784C225.121 50.248 221.905 51.48 217.585 51.48C213.265 51.48 210.049 50.248 207.937 47.784C205.825 45.32 204.769 41.912 204.769 37.56V19.848H206.977V37.56C206.977 45.528 210.513 49.512 217.585 49.512C224.657 49.512 228.193 45.528 228.193 37.56V19.848H230.401V37.56C230.401 41.912 229.345 45.32 227.233 47.784ZM241.619 51V19.848H256.163V21.768H243.827V33.096H254.963V34.968H243.827V48.984H256.643V51H241.619Z" fill="white"/>
<rect x="0.5" y="0.5" width="74" height="66" stroke="#0085FF"/>
</svg>
